PathFileType	4	(X/Y/Z)	C:/Users/opensim2020/Desktop/walking_exp_matlab/subject02_walking05_straight_03.trc																																																																																																																												
DataRate	CameraRate	NumFrames	NumMarkers	Units	OrigDataRate	OrigDataStartFrame	OrigNumFrames																																																																																																																								
100	100	4	42	mm	100	2217	224																																																																																																																								
Frame#	Time	LFHD			RFHD			LBHD			RBHD			C7			T10			CLAV			STRN			RBAK			LSHO			LUPA			LELB			LFRM			LWRA			LWRB			LFIN			RSHO			RUPA			RELB			RFRM			RWRA			RWRB			RFIN			LASI			RASI			LPSI			RPSI			LTHI			LKNE			LTIB			LANK			LHEE			LTOE			RTHI			RKNE			RTIB			RANK			RHEE			RTOE			*39			*40			*41		
		X1	Y1	Z1	X2	Y2	Z2	X3	Y3	Z3	X4	Y4	Z4	X5	Y5	Z5	X6	Y6	Z6	X7	Y7	Z7	X8	Y8	Z8	X9	Y9	Z9	X10	Y10	Z10	X11	Y11	Z11	X12	Y12	Z12	X13	Y13	Z13	X14	Y14	Z14	X15	Y15	Z15	X16	Y16	Z16	X17	Y17	Z17	X18	Y18	Z18	X19	Y19	Z19	X20	Y20	Z20	X21	Y21	Z21	X22	Y22	Z22	X23	Y23	Z23	X24	Y24	Z24	X25	Y25	Z25	X26	Y26	Z26	X27	Y27	Z27	X28	Y28	Z28	X29	Y29	Z29	X30	Y30	Z30	X31	Y31	Z31	X32	Y32	Z32	X33	Y33	Z33	X34	Y34	Z34	X35	Y35	Z35	X36	Y36	Z36	X37	Y37	Z37	X38	Y38	Z38	X39	Y39	Z39	X40	Y40	Z40	X41	Y41	Z41	X42	Y42	Z42
																																																																																																																															
141	1.4	271.08398	1737.77576	-1053.05029	249.3672	1719.54089	-910.84296	150.9642	1650.77429	-1081.3374	117.95444	1630.13098	-942.87744	90.64161	1517.46631	-996.41614	27.77661	1245.927	-982.26117	228.70615	1445.50415	-1015.28137	276.35779	1273.07446	-998.13867	33.35431	1350.43201	-919.8042	144.70541	1482.59473	-1179.19006	82.98328	1292.67175	-1255.43164	48.53312	1157.95886	-1269.73022	28.56059	1028.14087	-1293.05652	66.81621	892.99683	-1287.80347	14.49938	906.3147	-1304.90991	19.858	840.60352	-1317.73267	185.05901	1491.6582	-816.67554	190.68355	1306.08984	-717.59314	232.4254	1164.84131	-693.26154	293.23102	1060.00012	-679.1098	371.06769	951.84351	-704.42834	331.5665	935.98816	-666.45654	385.8075	888.38501	-667.77197	258.8175	985.10449	-1113.24329	247.19812	967.15948	-856.4566	46.86537	1022.51282	-1041.09949	36.39178	1023.77808	-927.62842	258.49863	682.97021	-1194.52905	315.50409	492.0965	-1173.22766	336.66013	301.06506	-1189.56885	432.65982	94.04721	-1178.10754	410.42438	53.31386	-1128.21631	590.08746	110.93531	-1181.48962	130.55693	662.41681	-807.95813	92.43047	455.35846	-853.25568	13.40493	283.22003	-848.55615	-44.12213	97.41172	-889.76483	-87.66162	45.51778	-944.93848	101.12666	37.00265	-875.14282	150.62318	1793.80859	-981.63068	2845.07983	1033.7804	-3360.21851	NaN	NaN	NaN
142	1.41	281.08926	1736.30542	-1055.18738	259.23361	1718.57422	-912.74274	161.32477	1648.72339	-1083.4209	127.99702	1628.02124	-944.82281	101.11018	1515.83923	-998.40472	38.16658	1244.29761	-984.59082	239.31418	1443.79919	-1016.82861	286.78186	1271.3407	-999.19299	43.45364	1348.89417	-921.99182	155.70958	1480.58313	-1180.92822	93.10417	1291.07336	-1256.6637	57.50013	1156.65967	-1270.68762	35.95102	1027.43604	-1294.35291	72.69086	891.55902	-1289.13721	20.3871	905.48364	-1305.88354	24.81639	839.63922	-1318.41846	195.1936	1490.0415	-818.36572	201.34143	1304.40442	-719.37018	243.76669	1163.24353	-695.07117	305.94882	1059.19861	-681.66858	384.3063	951.54504	-707.34747	345.2384	935.27148	-669.25745	399.92419	888.4624	-670.82471	270.85614	983.77777	-1113.4751	256.59131	965.41302	-856.59711	57.96712	1020.78632	-1043.4978	46.64336	1021.828	-930.24121	272.68384	682.37512	-1195.7146	328.06317	491.00763	-1174.69177	351.57813	300.48087	-1192.03943	450.41245	94.58378	-1180.41943	427.86536	53.07902	-1131.20679	607.5777	113.43647	-1180.93286	137.43964	661.58691	-808.84625	97.92949	454.73181	-853.70569	16.50382	283.64072	-849.18628	-43.42234	98.53725	-890.20557	-87.16854	46.78383	-945.57947	101.33607	36.98438	-875.02795	160.12207	1791.90979	-984.12341	2845.16919	1034.06226	-3360.20166	NaN	NaN	NaN
143	1.42	291.08899	1734.86963	-1057.354	269.28586	1717.34546	-915.04102	171.67915	1646.63977	-1085.65869	138.24417	1626.40112	-946.89886	111.59003	1514.21509	-1000.44623	48.72075	1242.71411	-986.88715	249.93839	1442.15454	-1018.47919	297.35684	1269.73914	-1000.36249	53.67456	1347.42432	-924.19226	166.92293	1478.92249	-1183.09192	103.45543	1289.53918	-1258.56201	66.86618	1155.35925	-1271.84949	43.69736	1026.34924	-1295.18494	79.04871	890.35248	-1290.42871	26.69793	904.65381	-1306.93213	30.24817	838.742	-1319.37732	205.30597	1488.42896	-820.05341	211.86792	1302.68201	-721.36407	254.97839	1161.67004	-696.99689	317.90463	1057.89954	-683.77313	397.41235	951.29901	-710.28613	358.5361	934.55627	-672.13428	414.12625	888.41772	-673.75763	283.01688	982.56323	-1113.94897	266.61258	963.77875	-856.83466	69.08151	1019.1369	-1045.90271	57.049	1019.98004	-932.83472	287.38177	681.8988	-1196.79578	340.94073	490.10904	-1176.09082	365.79633	299.83017	-1194.28564	465.92215	94.59645	-1182.41187	443.35989	52.19372	-1133.59802	622.90186	114.38547	-1180.52515	144.57047	660.78534	-809.90637	103.79952	453.88895	-854.12036	19.70644	284.16989	-849.79755	-42.65667	99.79173	-890.47137	-86.48515	48.43731	-945.99603	101.4715	36.98778	-874.90094	169.76772	1790.08569	-986.76105	2845.19971	1033.88196	-3360.30225	NaN	NaN	NaN
144	1.43	301.12415	1733.51929	-1059.61816	279.2478	1715.98706	-917.25964	182.06134	1644.81824	-1087.86133	148.45692	1624.98853	-949.15833	122.08229	1512.67883	-1002.62451	59.23549	1241.18188	-989.21417	260.6286	1440.62988	-1020.26031	307.96762	1268.26514	-1001.677	63.96904	1345.88831	-926.2326	178.03357	1477.20801	-1185.14233	114.02299	1287.93884	-1260.28894	76.42326	1154.05652	-1273.16492	51.90446	1025.14832	-1296.26917	85.74636	888.88788	-1291.70496	33.56196	903.90259	-1308.14026	36.18579	837.80988	-1320.39417	215.39006	1486.93469	-821.88715	221.85451	1300.76636	-723.5567	266.03421	1160.18054	-699.1214	330.0065	1056.98315	-686.24762	410.25446	951.03424	-713.24255	371.57431	933.77515	-675.15643	427.53308	888.06049	-677.10052	295.21454	981.48584	-1114.58545	276.16415	961.70325	-857.65314	80.37089	1017.56543	-1048.41492	67.76301	1018.25226	-935.43756	302.32318	681.50159	-1197.87866	354.40881	489.42117	-1177.40393	379.44571	298.96228	-1196.08423	479.2236	93.99224	-1184.15125	455.74911	51.42963	-1135.9812	636.07288	113.8757	-1180.23169	152.03398	659.98743	-810.98206	110.13879	453.28369	-854.48499	23.24581	284.77859	-850.34735	-41.8012	101.26313	-890.61127	-86.1548	50.26263	-946.42395	101.68184	36.97717	-874.71527	179.58743	1788.49878	-989.1413	2845.19946	1033.88989	-3360.302	NaN	NaN	NaN
